<mxfile modified="2022-01-24T13:20:51.231Z" host="app.diagrams.net" agent="5.0 (Macintosh; Intel Mac OS X 10_14_6) AppleWebKit/537.36 (KHTML, like Gecko) Chrome/97.0.4692.99 Safari/537.36" etag="4OSOD1YY77W7YLnuV1iY" version="15.1.1" type="github">
  <diagram id="Ht1M8jgEwFfnCIfOTk4-" name="Page-1">
    <mxGraphModel dx="2115" dy="591" grid="1" gridSize="10" guides="1" tooltips="1" connect="1" arrows="1" fold="1" page="1" pageScale="1" pageWidth="1169" pageHeight="827" math="0" shadow="0">
      <root>
        <mxCell id="0" />
        <mxCell id="1" parent="0" />
        <mxCell id="BOxT3LTor6TBMMufEwT3-157" value="User 1" style="sketch=0;points=[[0,0,0],[0.25,0,0],[0.5,0,0],[0.75,0,0],[1,0,0],[1,0.25,0],[1,0.5,0],[1,0.75,0],[1,1,0],[0.75,1,0],[0.5,1,0],[0.25,1,0],[0,1,0],[0,0.75,0],[0,0.5,0],[0,0.25,0]];rounded=1;absoluteArcSize=1;arcSize=2;html=1;strokeColor=none;gradientColor=none;shadow=0;dashed=0;fontSize=12;fontColor=#9E9E9E;align=left;verticalAlign=top;spacing=10;spacingTop=-4;fillColor=#E6E6E6;" vertex="1" parent="1">
          <mxGeometry x="250.88" y="692.48" width="489" height="217.52" as="geometry" />
        </mxCell>
        <mxCell id="BOxT3LTor6TBMMufEwT3-141" value="&lt;font color=&quot;#1a1a1a&quot;&gt;中间件&lt;/font&gt;" style="sketch=0;points=[[0,0,0],[0.25,0,0],[0.5,0,0],[0.75,0,0],[1,0,0],[1,0.25,0],[1,0.5,0],[1,0.75,0],[1,1,0],[0.75,1,0],[0.5,1,0],[0.25,1,0],[0,1,0],[0,0.75,0],[0,0.5,0],[0,0.25,0]];rounded=1;absoluteArcSize=1;arcSize=2;html=1;strokeColor=#6c8ebf;shadow=0;dashed=0;fontSize=12;align=left;verticalAlign=top;spacing=10;spacingTop=-4;fillColor=#dae8fc;" vertex="1" parent="1">
          <mxGeometry x="250.88" y="692.48" width="289.12" height="217.52" as="geometry" />
        </mxCell>
        <mxCell id="BOxT3LTor6TBMMufEwT3-1" value="" style="sketch=0;aspect=fixed;pointerEvents=1;shadow=0;dashed=0;html=1;strokeColor=none;labelPosition=center;verticalLabelPosition=bottom;verticalAlign=top;align=center;fillColor=#00188D;shape=mxgraph.azure.user" vertex="1" parent="1">
          <mxGeometry x="260" y="20" width="47" height="50" as="geometry" />
        </mxCell>
        <mxCell id="BOxT3LTor6TBMMufEwT3-83" style="edgeStyle=orthogonalEdgeStyle;rounded=0;orthogonalLoop=1;jettySize=auto;html=1;entryX=0.575;entryY=0.05;entryDx=0;entryDy=0;entryPerimeter=0;exitX=0.87;exitY=0.65;exitDx=0;exitDy=0;exitPerimeter=0;" edge="1" parent="1" source="BOxT3LTor6TBMMufEwT3-2" target="BOxT3LTor6TBMMufEwT3-23">
          <mxGeometry relative="1" as="geometry">
            <mxPoint x="559.6949999999999" y="115.005" as="targetPoint" />
            <Array as="points">
              <mxPoint x="557" y="53" />
            </Array>
          </mxGeometry>
        </mxCell>
        <mxCell id="BOxT3LTor6TBMMufEwT3-2" value="" style="sketch=0;aspect=fixed;pointerEvents=1;shadow=0;dashed=0;html=1;strokeColor=none;labelPosition=center;verticalLabelPosition=bottom;verticalAlign=top;align=center;fillColor=#00188D;shape=mxgraph.azure.user" vertex="1" parent="1">
          <mxGeometry x="360" y="20" width="47" height="50" as="geometry" />
        </mxCell>
        <mxCell id="BOxT3LTor6TBMMufEwT3-16" value="IP_HASH" style="edgeStyle=orthogonalEdgeStyle;rounded=0;orthogonalLoop=1;jettySize=auto;html=1;" edge="1" parent="1" target="BOxT3LTor6TBMMufEwT3-12">
          <mxGeometry relative="1" as="geometry">
            <mxPoint x="295.5" y="145" as="sourcePoint" />
          </mxGeometry>
        </mxCell>
        <mxCell id="BOxT3LTor6TBMMufEwT3-32" style="edgeStyle=orthogonalEdgeStyle;rounded=0;orthogonalLoop=1;jettySize=auto;html=1;entryX=0.253;entryY=-0.05;entryDx=0;entryDy=0;entryPerimeter=0;" edge="1" parent="1" source="BOxT3LTor6TBMMufEwT3-12" target="BOxT3LTor6TBMMufEwT3-26">
          <mxGeometry relative="1" as="geometry" />
        </mxCell>
        <mxCell id="BOxT3LTor6TBMMufEwT3-156" value="IP_HASH" style="edgeLabel;html=1;align=center;verticalAlign=middle;resizable=0;points=[];" vertex="1" connectable="0" parent="BOxT3LTor6TBMMufEwT3-32">
          <mxGeometry x="0.3427" y="-1" relative="1" as="geometry">
            <mxPoint as="offset" />
          </mxGeometry>
        </mxCell>
        <mxCell id="BOxT3LTor6TBMMufEwT3-33" style="edgeStyle=none;rounded=0;orthogonalLoop=1;jettySize=auto;html=1;entryX=0.02;entryY=0.01;entryDx=0;entryDy=0;entryPerimeter=0;" edge="1" parent="1" source="BOxT3LTor6TBMMufEwT3-12" target="BOxT3LTor6TBMMufEwT3-27">
          <mxGeometry relative="1" as="geometry" />
        </mxCell>
        <mxCell id="BOxT3LTor6TBMMufEwT3-155" value="iP_HASH" style="edgeLabel;html=1;align=center;verticalAlign=middle;resizable=0;points=[];" vertex="1" connectable="0" parent="BOxT3LTor6TBMMufEwT3-33">
          <mxGeometry x="-0.2512" y="-2" relative="1" as="geometry">
            <mxPoint as="offset" />
          </mxGeometry>
        </mxCell>
        <mxCell id="BOxT3LTor6TBMMufEwT3-140" style="edgeStyle=orthogonalEdgeStyle;rounded=0;orthogonalLoop=1;jettySize=auto;html=1;entryX=1;entryY=0.62;entryDx=0;entryDy=0;entryPerimeter=0;" edge="1" parent="1" source="BOxT3LTor6TBMMufEwT3-12" target="BOxT3LTor6TBMMufEwT3-28">
          <mxGeometry relative="1" as="geometry" />
        </mxCell>
        <mxCell id="BOxT3LTor6TBMMufEwT3-154" value="Proxy" style="edgeLabel;html=1;align=center;verticalAlign=middle;resizable=0;points=[];" vertex="1" connectable="0" parent="BOxT3LTor6TBMMufEwT3-140">
          <mxGeometry x="-0.5168" relative="1" as="geometry">
            <mxPoint x="1" as="offset" />
          </mxGeometry>
        </mxCell>
        <mxCell id="BOxT3LTor6TBMMufEwT3-12" value="&lt;font color=&quot;#0000ff&quot;&gt;Nginx (Linux)&lt;/font&gt;" style="sketch=0;aspect=fixed;html=1;points=[];align=center;image;fontSize=12;image=img/lib/mscae/OpenShift.svg;fillColor=#F31339;" vertex="1" parent="1">
          <mxGeometry x="270.5" y="210" width="50" height="46" as="geometry" />
        </mxCell>
        <mxCell id="BOxT3LTor6TBMMufEwT3-35" style="edgeStyle=none;rounded=0;orthogonalLoop=1;jettySize=auto;html=1;entryX=0.194;entryY=-0.033;entryDx=0;entryDy=0;entryPerimeter=0;" edge="1" parent="1" source="BOxT3LTor6TBMMufEwT3-14" target="BOxT3LTor6TBMMufEwT3-29">
          <mxGeometry relative="1" as="geometry" />
        </mxCell>
        <mxCell id="BOxT3LTor6TBMMufEwT3-134" value="IP_HASH" style="edgeLabel;html=1;align=center;verticalAlign=middle;resizable=0;points=[];" vertex="1" connectable="0" parent="BOxT3LTor6TBMMufEwT3-35">
          <mxGeometry x="-0.0003" y="-2" relative="1" as="geometry">
            <mxPoint as="offset" />
          </mxGeometry>
        </mxCell>
        <mxCell id="BOxT3LTor6TBMMufEwT3-37" style="edgeStyle=none;rounded=0;orthogonalLoop=1;jettySize=auto;html=1;entryX=0.02;entryY=0.01;entryDx=0;entryDy=0;entryPerimeter=0;" edge="1" parent="1" source="BOxT3LTor6TBMMufEwT3-14" target="BOxT3LTor6TBMMufEwT3-30">
          <mxGeometry relative="1" as="geometry" />
        </mxCell>
        <mxCell id="BOxT3LTor6TBMMufEwT3-135" value="IP_HASH" style="edgeLabel;html=1;align=center;verticalAlign=middle;resizable=0;points=[];" vertex="1" connectable="0" parent="BOxT3LTor6TBMMufEwT3-37">
          <mxGeometry x="-0.3492" relative="1" as="geometry">
            <mxPoint as="offset" />
          </mxGeometry>
        </mxCell>
        <mxCell id="BOxT3LTor6TBMMufEwT3-14" value="&lt;font color=&quot;#0000ff&quot;&gt;Nginx (Linux)&lt;/font&gt;" style="sketch=0;aspect=fixed;html=1;points=[];align=center;image;fontSize=12;image=img/lib/mscae/OpenShift.svg;fillColor=#F31339;" vertex="1" parent="1">
          <mxGeometry x="822.84" y="180" width="50" height="46" as="geometry" />
        </mxCell>
        <mxCell id="BOxT3LTor6TBMMufEwT3-21" value="" style="endArrow=classic;html=1;entryX=0.52;entryY=-0.043;entryDx=0;entryDy=0;entryPerimeter=0;exitX=0.874;exitY=1.114;exitDx=0;exitDy=0;exitPerimeter=0;" edge="1" parent="1" target="BOxT3LTor6TBMMufEwT3-14">
          <mxGeometry width="50" height="50" relative="1" as="geometry">
            <mxPoint x="849.0219999999999" y="148.99" as="sourcePoint" />
            <mxPoint x="720" y="150" as="targetPoint" />
          </mxGeometry>
        </mxCell>
        <mxCell id="BOxT3LTor6TBMMufEwT3-23" value="负载均衡+路由管理" style="rounded=0;whiteSpace=wrap;html=1;align=center;fontColor=#1A1A1A;fillColor=#E6E6E6;" vertex="1" parent="1">
          <mxGeometry x="-240" y="130" width="1409" height="20" as="geometry" />
        </mxCell>
        <mxCell id="BOxT3LTor6TBMMufEwT3-25" value="" style="endArrow=none;dashed=1;html=1;" edge="1" parent="1">
          <mxGeometry width="50" height="50" relative="1" as="geometry">
            <mxPoint x="239" y="290" as="sourcePoint" />
            <mxPoint x="1170" y="290" as="targetPoint" />
          </mxGeometry>
        </mxCell>
        <mxCell id="BOxT3LTor6TBMMufEwT3-26" value="windows server2018+" style="sketch=0;aspect=fixed;pointerEvents=1;shadow=0;dashed=0;html=1;strokeColor=none;labelPosition=center;verticalLabelPosition=bottom;verticalAlign=top;align=center;fillColor=#00188D;shape=mxgraph.mscae.enterprise.application_server" vertex="1" parent="1">
          <mxGeometry x="282.95" y="330" width="51.6" height="60" as="geometry" />
        </mxCell>
        <mxCell id="BOxT3LTor6TBMMufEwT3-27" value="windows server2018+" style="sketch=0;aspect=fixed;pointerEvents=1;shadow=0;dashed=0;html=1;strokeColor=none;labelPosition=center;verticalLabelPosition=bottom;verticalAlign=top;align=center;fillColor=#00188D;shape=mxgraph.mscae.enterprise.application_server" vertex="1" parent="1">
          <mxGeometry x="449" y="330" width="51.6" height="60" as="geometry" />
        </mxCell>
        <mxCell id="BOxT3LTor6TBMMufEwT3-28" value="windows server2018+" style="sketch=0;aspect=fixed;pointerEvents=1;shadow=0;dashed=0;html=1;strokeColor=none;labelPosition=center;verticalLabelPosition=bottom;verticalAlign=top;align=center;fillColor=#00188D;shape=mxgraph.mscae.enterprise.application_server" vertex="1" parent="1">
          <mxGeometry x="640" y="755.26" width="51.6" height="60" as="geometry" />
        </mxCell>
        <mxCell id="BOxT3LTor6TBMMufEwT3-29" value="windows server2018+" style="sketch=0;aspect=fixed;pointerEvents=1;shadow=0;dashed=0;html=1;strokeColor=none;labelPosition=center;verticalLabelPosition=bottom;verticalAlign=top;align=center;fillColor=#00188D;shape=mxgraph.mscae.enterprise.application_server" vertex="1" parent="1">
          <mxGeometry x="838" y="320" width="51.6" height="60" as="geometry" />
        </mxCell>
        <mxCell id="BOxT3LTor6TBMMufEwT3-30" value="windows server2018+（负载）&lt;br&gt;" style="sketch=0;aspect=fixed;pointerEvents=1;shadow=0;dashed=0;html=1;strokeColor=none;labelPosition=center;verticalLabelPosition=bottom;verticalAlign=top;align=center;fillColor=#00188D;shape=mxgraph.mscae.enterprise.application_server" vertex="1" parent="1">
          <mxGeometry x="1071.92" y="320" width="51.6" height="60" as="geometry" />
        </mxCell>
        <mxCell id="BOxT3LTor6TBMMufEwT3-120" style="edgeStyle=orthogonalEdgeStyle;rounded=0;orthogonalLoop=1;jettySize=auto;html=1;exitX=0;exitY=0.5;exitDx=0;exitDy=0;exitPerimeter=0;shape=link;dashed=1;entryX=0.5;entryY=1;entryDx=0;entryDy=0;" edge="1" parent="1" source="BOxT3LTor6TBMMufEwT3-40" target="BOxT3LTor6TBMMufEwT3-121">
          <mxGeometry relative="1" as="geometry">
            <mxPoint x="283.12" y="1032.48" as="targetPoint" />
          </mxGeometry>
        </mxCell>
        <mxCell id="BOxT3LTor6TBMMufEwT3-138" style="edgeStyle=orthogonalEdgeStyle;rounded=0;orthogonalLoop=1;jettySize=auto;html=1;exitX=1;exitY=0.56;exitDx=0;exitDy=0;exitPerimeter=0;entryX=0.565;entryY=1.02;entryDx=0;entryDy=0;entryPerimeter=0;shape=link;dashed=1;" edge="1" parent="1" source="BOxT3LTor6TBMMufEwT3-40" target="BOxT3LTor6TBMMufEwT3-137">
          <mxGeometry relative="1" as="geometry" />
        </mxCell>
        <mxCell id="BOxT3LTor6TBMMufEwT3-166" style="edgeStyle=orthogonalEdgeStyle;rounded=0;orthogonalLoop=1;jettySize=auto;html=1;exitX=0;exitY=0.925;exitDx=0;exitDy=0;exitPerimeter=0;entryX=1;entryY=0.25;entryDx=0;entryDy=0;fontColor=#1A1A1A;" edge="1" parent="1" source="BOxT3LTor6TBMMufEwT3-40" target="BOxT3LTor6TBMMufEwT3-162">
          <mxGeometry relative="1" as="geometry" />
        </mxCell>
        <mxCell id="BOxT3LTor6TBMMufEwT3-167" value="DB_LINK" style="edgeLabel;html=1;align=center;verticalAlign=middle;resizable=0;points=[];fontColor=#1A1A1A;" vertex="1" connectable="0" parent="BOxT3LTor6TBMMufEwT3-166">
          <mxGeometry x="0.3277" y="2" relative="1" as="geometry">
            <mxPoint y="1" as="offset" />
          </mxGeometry>
        </mxCell>
        <mxCell id="BOxT3LTor6TBMMufEwT3-40" value="Oracle11g/orcl&lt;br&gt;&amp;nbsp;(windows server2018+)" style="sketch=0;pointerEvents=1;shadow=0;dashed=0;html=1;strokeColor=none;labelPosition=center;verticalLabelPosition=bottom;verticalAlign=top;align=center;fillColor=#515151;shape=mxgraph.mscae.system_center.primary_site;" vertex="1" parent="1">
          <mxGeometry x="363.12" y="1002.48" width="54" height="60" as="geometry" />
        </mxCell>
        <mxCell id="BOxT3LTor6TBMMufEwT3-148" style="edgeStyle=orthogonalEdgeStyle;rounded=0;orthogonalLoop=1;jettySize=auto;html=1;exitX=0.5;exitY=1;exitDx=0;exitDy=0;exitPerimeter=0;entryX=0.5;entryY=0;entryDx=0;entryDy=0;entryPerimeter=0;" edge="1" parent="1" source="BOxT3LTor6TBMMufEwT3-47" target="BOxT3LTor6TBMMufEwT3-48">
          <mxGeometry relative="1" as="geometry" />
        </mxCell>
        <mxCell id="BOxT3LTor6TBMMufEwT3-150" style="edgeStyle=orthogonalEdgeStyle;rounded=0;orthogonalLoop=1;jettySize=auto;html=1;exitX=0;exitY=0.5;exitDx=0;exitDy=0;exitPerimeter=0;entryX=0;entryY=0.5;entryDx=0;entryDy=0;" edge="1" parent="1" source="BOxT3LTor6TBMMufEwT3-47" target="BOxT3LTor6TBMMufEwT3-121">
          <mxGeometry relative="1" as="geometry">
            <Array as="points">
              <mxPoint x="210" y="455" />
              <mxPoint x="210" y="968" />
            </Array>
          </mxGeometry>
        </mxCell>
        <mxCell id="BOxT3LTor6TBMMufEwT3-47" value="商央" style="sketch=0;aspect=fixed;pointerEvents=1;shadow=0;dashed=0;html=1;strokeColor=none;labelPosition=center;verticalLabelPosition=bottom;verticalAlign=top;align=center;fillColor=#00188D;shape=mxgraph.mscae.enterprise.application" vertex="1" parent="1">
          <mxGeometry x="261.03000000000003" y="430" width="73.52" height="50" as="geometry" />
        </mxCell>
        <mxCell id="BOxT3LTor6TBMMufEwT3-171" style="edgeStyle=orthogonalEdgeStyle;rounded=0;orthogonalLoop=1;jettySize=auto;html=1;exitX=0;exitY=0.5;exitDx=0;exitDy=0;exitPerimeter=0;entryX=0;entryY=0.5;entryDx=0;entryDy=0;entryPerimeter=0;fontColor=#1A1A1A;" edge="1" parent="1" source="BOxT3LTor6TBMMufEwT3-48" target="BOxT3LTor6TBMMufEwT3-141">
          <mxGeometry relative="1" as="geometry">
            <Array as="points">
              <mxPoint x="210" y="628" />
              <mxPoint x="210" y="801" />
            </Array>
          </mxGeometry>
        </mxCell>
        <mxCell id="BOxT3LTor6TBMMufEwT3-48" value="业务中台" style="sketch=0;aspect=fixed;pointerEvents=1;shadow=0;dashed=0;html=1;strokeColor=none;labelPosition=center;verticalLabelPosition=bottom;verticalAlign=top;align=center;fillColor=#00188D;shape=mxgraph.mscae.enterprise.application" vertex="1" parent="1">
          <mxGeometry x="260.89000000000004" y="602.52" width="73.52" height="50" as="geometry" />
        </mxCell>
        <mxCell id="BOxT3LTor6TBMMufEwT3-149" style="edgeStyle=orthogonalEdgeStyle;rounded=0;orthogonalLoop=1;jettySize=auto;html=1;exitX=0.5;exitY=1;exitDx=0;exitDy=0;exitPerimeter=0;entryX=0.5;entryY=0;entryDx=0;entryDy=0;entryPerimeter=0;" edge="1" parent="1" source="BOxT3LTor6TBMMufEwT3-50" target="BOxT3LTor6TBMMufEwT3-51">
          <mxGeometry relative="1" as="geometry" />
        </mxCell>
        <mxCell id="BOxT3LTor6TBMMufEwT3-151" style="edgeStyle=orthogonalEdgeStyle;rounded=0;orthogonalLoop=1;jettySize=auto;html=1;exitX=1;exitY=0.5;exitDx=0;exitDy=0;exitPerimeter=0;entryX=1;entryY=0.5;entryDx=0;entryDy=0;" edge="1" parent="1">
          <mxGeometry relative="1" as="geometry">
            <mxPoint x="505.5999999999999" y="455" as="sourcePoint" />
            <mxPoint x="541.6400000000001" y="967.48" as="targetPoint" />
            <Array as="points">
              <mxPoint x="583" y="455" />
              <mxPoint x="583" y="968" />
            </Array>
          </mxGeometry>
        </mxCell>
        <mxCell id="BOxT3LTor6TBMMufEwT3-50" value="商央" style="sketch=0;aspect=fixed;pointerEvents=1;shadow=0;dashed=0;html=1;strokeColor=none;labelPosition=center;verticalLabelPosition=bottom;verticalAlign=top;align=center;fillColor=#00188D;shape=mxgraph.mscae.enterprise.application" vertex="1" parent="1">
          <mxGeometry x="429.08000000000004" y="430" width="73.52" height="50" as="geometry" />
        </mxCell>
        <mxCell id="BOxT3LTor6TBMMufEwT3-172" style="edgeStyle=orthogonalEdgeStyle;rounded=0;orthogonalLoop=1;jettySize=auto;html=1;exitX=1;exitY=0.5;exitDx=0;exitDy=0;exitPerimeter=0;fontColor=#1A1A1A;entryX=1;entryY=0.5;entryDx=0;entryDy=0;entryPerimeter=0;" edge="1" parent="1" target="BOxT3LTor6TBMMufEwT3-141">
          <mxGeometry relative="1" as="geometry">
            <mxPoint x="505.5999999999999" y="627.52" as="sourcePoint" />
            <mxPoint x="560" y="810" as="targetPoint" />
            <Array as="points">
              <mxPoint x="583" y="628" />
              <mxPoint x="583" y="801" />
            </Array>
          </mxGeometry>
        </mxCell>
        <mxCell id="BOxT3LTor6TBMMufEwT3-51" value="业务中台" style="sketch=0;aspect=fixed;pointerEvents=1;shadow=0;dashed=0;html=1;strokeColor=none;labelPosition=center;verticalLabelPosition=bottom;verticalAlign=top;align=center;fillColor=#00188D;shape=mxgraph.mscae.enterprise.application" vertex="1" parent="1">
          <mxGeometry x="429.08000000000004" y="602.52" width="73.52" height="50" as="geometry" />
        </mxCell>
        <mxCell id="BOxT3LTor6TBMMufEwT3-55" value="&lt;font color=&quot;#00cc00&quot;&gt;&lt;br&gt;&lt;br&gt;大货&lt;/font&gt;" style="shape=crossbar;whiteSpace=wrap;html=1;rounded=1;fillColor=none;strokeColor=#00CC00;" vertex="1" parent="1">
          <mxGeometry x="789" y="1180" width="380" height="20" as="geometry" />
        </mxCell>
        <mxCell id="BOxT3LTor6TBMMufEwT3-61" value="MinIO" style="sketch=0;aspect=fixed;pointerEvents=1;shadow=0;dashed=0;html=1;strokeColor=none;labelPosition=center;verticalLabelPosition=bottom;verticalAlign=top;align=center;fillColor=#00188D;shape=mxgraph.mscae.enterprise.app_generic;flipH=1;" vertex="1" parent="1">
          <mxGeometry x="264.1500000000001" y="736.61" width="67" height="52.26" as="geometry" />
        </mxCell>
        <mxCell id="BOxT3LTor6TBMMufEwT3-62" value="RabbitMQ" style="sketch=0;aspect=fixed;pointerEvents=1;shadow=0;dashed=0;html=1;strokeColor=none;labelPosition=center;verticalLabelPosition=bottom;verticalAlign=top;align=center;fillColor=#00188D;shape=mxgraph.mscae.enterprise.app_generic;flipH=1;" vertex="1" parent="1">
          <mxGeometry x="435.4600000000001" y="736.61" width="67" height="52.26" as="geometry" />
        </mxCell>
        <mxCell id="BOxT3LTor6TBMMufEwT3-63" value="Graylog" style="sketch=0;aspect=fixed;pointerEvents=1;shadow=0;dashed=0;html=1;strokeColor=none;labelPosition=center;verticalLabelPosition=bottom;verticalAlign=top;align=center;fillColor=#00188D;shape=mxgraph.mscae.enterprise.app_generic;flipH=1;" vertex="1" parent="1">
          <mxGeometry x="433.60000000000014" y="827" width="67" height="52.26" as="geometry" />
        </mxCell>
        <mxCell id="BOxT3LTor6TBMMufEwT3-65" value="IBI报表" style="sketch=0;aspect=fixed;pointerEvents=1;shadow=0;dashed=0;html=1;strokeColor=none;labelPosition=center;verticalLabelPosition=bottom;verticalAlign=top;align=center;fillColor=#00188D;shape=mxgraph.mscae.enterprise.app_generic;flipH=1;" vertex="1" parent="1">
          <mxGeometry x="346.96000000000015" y="736.61" width="67" height="52.26" as="geometry" />
        </mxCell>
        <mxCell id="BOxT3LTor6TBMMufEwT3-114" style="edgeStyle=orthogonalEdgeStyle;rounded=0;orthogonalLoop=1;jettySize=auto;html=1;exitX=0;exitY=0.5;exitDx=0;exitDy=0;exitPerimeter=0;entryX=0;entryY=0.5;entryDx=0;entryDy=0;entryPerimeter=0;" edge="1" parent="1" source="BOxT3LTor6TBMMufEwT3-70" target="BOxT3LTor6TBMMufEwT3-99">
          <mxGeometry relative="1" as="geometry" />
        </mxCell>
        <mxCell id="BOxT3LTor6TBMMufEwT3-124" style="edgeStyle=orthogonalEdgeStyle;rounded=0;orthogonalLoop=1;jettySize=auto;html=1;exitX=1;exitY=0.5;exitDx=0;exitDy=0;exitPerimeter=0;entryX=1;entryY=0.5;entryDx=0;entryDy=0;" edge="1" parent="1" source="BOxT3LTor6TBMMufEwT3-70" target="BOxT3LTor6TBMMufEwT3-105">
          <mxGeometry relative="1" as="geometry" />
        </mxCell>
        <mxCell id="BOxT3LTor6TBMMufEwT3-125" style="edgeStyle=orthogonalEdgeStyle;rounded=0;orthogonalLoop=1;jettySize=auto;html=1;entryX=1;entryY=0.25;entryDx=0;entryDy=0;exitX=1;exitY=0.5;exitDx=0;exitDy=0;exitPerimeter=0;" edge="1" parent="1" source="BOxT3LTor6TBMMufEwT3-70" target="BOxT3LTor6TBMMufEwT3-107">
          <mxGeometry relative="1" as="geometry" />
        </mxCell>
        <mxCell id="BOxT3LTor6TBMMufEwT3-126" value="JBOSS GA5" style="edgeLabel;html=1;align=center;verticalAlign=middle;resizable=0;points=[];" vertex="1" connectable="0" parent="BOxT3LTor6TBMMufEwT3-125">
          <mxGeometry x="-0.2014" y="1" relative="1" as="geometry">
            <mxPoint as="offset" />
          </mxGeometry>
        </mxCell>
        <mxCell id="BOxT3LTor6TBMMufEwT3-130" style="edgeStyle=none;rounded=0;orthogonalLoop=1;jettySize=auto;html=1;exitX=0.5;exitY=0;exitDx=0;exitDy=0;exitPerimeter=0;entryX=0.5;entryY=1;entryDx=0;entryDy=0;entryPerimeter=0;" edge="1" parent="1" source="BOxT3LTor6TBMMufEwT3-70" target="BOxT3LTor6TBMMufEwT3-95">
          <mxGeometry relative="1" as="geometry" />
        </mxCell>
        <mxCell id="BOxT3LTor6TBMMufEwT3-133" style="edgeStyle=none;rounded=0;orthogonalLoop=1;jettySize=auto;html=1;exitX=1;exitY=0;exitDx=0;exitDy=0;exitPerimeter=0;entryX=0;entryY=0.5;entryDx=0;entryDy=0;entryPerimeter=0;" edge="1" parent="1" source="BOxT3LTor6TBMMufEwT3-70" target="BOxT3LTor6TBMMufEwT3-98">
          <mxGeometry relative="1" as="geometry" />
        </mxCell>
        <mxCell id="BOxT3LTor6TBMMufEwT3-70" value="PORTAL" style="sketch=0;aspect=fixed;pointerEvents=1;shadow=0;dashed=0;html=1;strokeColor=none;labelPosition=center;verticalLabelPosition=bottom;verticalAlign=top;align=center;fillColor=#00188D;shape=mxgraph.mscae.enterprise.application" vertex="1" parent="1">
          <mxGeometry x="822.8399999999999" y="602.52" width="73.52" height="50" as="geometry" />
        </mxCell>
        <mxCell id="BOxT3LTor6TBMMufEwT3-115" style="edgeStyle=orthogonalEdgeStyle;rounded=0;orthogonalLoop=1;jettySize=auto;html=1;entryX=1;entryY=0.5;entryDx=0;entryDy=0;exitX=1;exitY=0.5;exitDx=0;exitDy=0;exitPerimeter=0;" edge="1" parent="1" source="BOxT3LTor6TBMMufEwT3-74" target="BOxT3LTor6TBMMufEwT3-111">
          <mxGeometry relative="1" as="geometry">
            <mxPoint x="1140" y="620" as="sourcePoint" />
            <Array as="points">
              <mxPoint x="1160" y="628" />
              <mxPoint x="1160" y="967" />
            </Array>
          </mxGeometry>
        </mxCell>
        <mxCell id="BOxT3LTor6TBMMufEwT3-131" style="edgeStyle=none;rounded=0;orthogonalLoop=1;jettySize=auto;html=1;exitX=0.5;exitY=0;exitDx=0;exitDy=0;exitPerimeter=0;entryX=0.5;entryY=1;entryDx=0;entryDy=0;entryPerimeter=0;" edge="1" parent="1" source="BOxT3LTor6TBMMufEwT3-74" target="BOxT3LTor6TBMMufEwT3-98">
          <mxGeometry relative="1" as="geometry" />
        </mxCell>
        <mxCell id="BOxT3LTor6TBMMufEwT3-136" style="edgeStyle=none;rounded=0;orthogonalLoop=1;jettySize=auto;html=1;exitX=0;exitY=0;exitDx=0;exitDy=0;exitPerimeter=0;entryX=1;entryY=0.5;entryDx=0;entryDy=0;entryPerimeter=0;" edge="1" parent="1" source="BOxT3LTor6TBMMufEwT3-74" target="BOxT3LTor6TBMMufEwT3-95">
          <mxGeometry relative="1" as="geometry" />
        </mxCell>
        <mxCell id="BOxT3LTor6TBMMufEwT3-74" value="PORTAL" style="sketch=0;aspect=fixed;pointerEvents=1;shadow=0;dashed=0;html=1;strokeColor=none;labelPosition=center;verticalLabelPosition=bottom;verticalAlign=top;align=center;fillColor=#00188D;shape=mxgraph.mscae.enterprise.application" vertex="1" parent="1">
          <mxGeometry x="1052.94" y="602.52" width="73.52" height="50" as="geometry" />
        </mxCell>
        <mxCell id="BOxT3LTor6TBMMufEwT3-77" value="&lt;br&gt;&lt;br&gt;潮牌" style="shape=crossbar;whiteSpace=wrap;html=1;rounded=1;fillColor=none;strokeColor=#00CC00;fontColor=#00CC00;" vertex="1" parent="1">
          <mxGeometry x="250" y="1180" width="110" height="20" as="geometry" />
        </mxCell>
        <mxCell id="BOxT3LTor6TBMMufEwT3-78" value="&lt;br&gt;&lt;br&gt;儿童" style="shape=crossbar;whiteSpace=wrap;html=1;rounded=1;fillColor=none;strokeColor=#00CC00;fontColor=#00CC00;" vertex="1" parent="1">
          <mxGeometry x="427.04" y="1180" width="122.96" height="20" as="geometry" />
        </mxCell>
        <mxCell id="BOxT3LTor6TBMMufEwT3-95" value="IBI报表" style="sketch=0;aspect=fixed;pointerEvents=1;shadow=0;dashed=0;html=1;strokeColor=none;labelPosition=center;verticalLabelPosition=bottom;verticalAlign=top;align=center;fillColor=#00188D;shape=mxgraph.mscae.enterprise.app_generic" vertex="1" parent="1">
          <mxGeometry x="826.3600000000002" y="430" width="67" height="52.26" as="geometry" />
        </mxCell>
        <mxCell id="BOxT3LTor6TBMMufEwT3-98" value="Redis" style="sketch=0;aspect=fixed;pointerEvents=1;shadow=0;dashed=0;html=1;strokeColor=none;labelPosition=center;verticalLabelPosition=bottom;verticalAlign=top;align=center;fillColor=#00188D;shape=mxgraph.mscae.enterprise.application_blank" vertex="1" parent="1">
          <mxGeometry x="1056.46" y="430.00000000000006" width="67" height="57.62" as="geometry" />
        </mxCell>
        <mxCell id="BOxT3LTor6TBMMufEwT3-116" style="edgeStyle=orthogonalEdgeStyle;rounded=0;orthogonalLoop=1;jettySize=auto;html=1;exitX=1;exitY=0.56;exitDx=0;exitDy=0;exitPerimeter=0;entryX=0;entryY=0.5;entryDx=0;entryDy=0;dashed=1;shape=link;" edge="1" parent="1" source="BOxT3LTor6TBMMufEwT3-99" target="BOxT3LTor6TBMMufEwT3-111">
          <mxGeometry relative="1" as="geometry" />
        </mxCell>
        <mxCell id="BOxT3LTor6TBMMufEwT3-99" value="Oracle11g&lt;br&gt;&amp;nbsp;(windows server2018+)" style="sketch=0;pointerEvents=1;shadow=0;dashed=0;html=1;strokeColor=none;labelPosition=center;verticalLabelPosition=bottom;verticalAlign=top;align=center;fillColor=#515151;shape=mxgraph.mscae.system_center.primary_site;" vertex="1" parent="1">
          <mxGeometry x="866.5200000000001" y="932.48" width="54" height="60" as="geometry" />
        </mxCell>
        <mxCell id="BOxT3LTor6TBMMufEwT3-104" value="订货会plugin" style="rounded=0;whiteSpace=wrap;html=1;fillColor=none;" vertex="1" parent="1">
          <mxGeometry x="822.84" y="691.52" width="60.92" height="40" as="geometry" />
        </mxCell>
        <mxCell id="BOxT3LTor6TBMMufEwT3-105" value="在线调单plugin" style="rounded=0;whiteSpace=wrap;html=1;fillColor=none;" vertex="1" parent="1">
          <mxGeometry x="883.76" y="691.52" width="60" height="40" as="geometry" />
        </mxCell>
        <mxCell id="BOxT3LTor6TBMMufEwT3-106" value="在线调单单页" style="rounded=0;whiteSpace=wrap;html=1;fillColor=none;" vertex="1" parent="1">
          <mxGeometry x="822.84" y="741.52" width="120.92" height="20" as="geometry" />
        </mxCell>
        <mxCell id="BOxT3LTor6TBMMufEwT3-107" value="单店定位单页" style="rounded=0;whiteSpace=wrap;html=1;fillColor=none;" vertex="1" parent="1">
          <mxGeometry x="822.84" y="761.52" width="120.92" height="20" as="geometry" />
        </mxCell>
        <mxCell id="BOxT3LTor6TBMMufEwT3-111" value="scheam：flia_adult" style="rounded=1;whiteSpace=wrap;html=1;fillColor=none;align=center;verticalAlign=middle;" vertex="1" parent="1">
          <mxGeometry x="961.48" y="941.48" width="130" height="50" as="geometry" />
        </mxCell>
        <mxCell id="BOxT3LTor6TBMMufEwT3-121" value="scheam：flia_fad" style="rounded=1;whiteSpace=wrap;html=1;fillColor=none;align=center;verticalAlign=middle;" vertex="1" parent="1">
          <mxGeometry x="247.12" y="942.48" width="112.21" height="50" as="geometry" />
        </mxCell>
        <mxCell id="BOxT3LTor6TBMMufEwT3-137" value="scheam：flia_kids" style="rounded=1;whiteSpace=wrap;html=1;fillColor=none;align=center;verticalAlign=middle;" vertex="1" parent="1">
          <mxGeometry x="426.43" y="942.48" width="112.21" height="50" as="geometry" />
        </mxCell>
        <mxCell id="BOxT3LTor6TBMMufEwT3-142" value="Redis" style="sketch=0;aspect=fixed;pointerEvents=1;shadow=0;dashed=0;html=1;strokeColor=none;labelPosition=center;verticalLabelPosition=bottom;verticalAlign=top;align=center;fillColor=#00188D;shape=mxgraph.mscae.enterprise.app_generic;flipH=1;" vertex="1" parent="1">
          <mxGeometry x="265.1200000000001" y="825.48" width="67" height="52.26" as="geometry" />
        </mxCell>
        <mxCell id="BOxT3LTor6TBMMufEwT3-158" value="Oracle11g/orcl&lt;br&gt;&amp;nbsp;(windows server2018+)" style="sketch=0;pointerEvents=1;shadow=0;dashed=0;html=1;strokeColor=none;labelPosition=center;verticalLabelPosition=bottom;verticalAlign=top;align=center;fillColor=#515151;shape=mxgraph.mscae.system_center.primary_site;" vertex="1" parent="1">
          <mxGeometry x="-120" y="1013" width="54" height="60" as="geometry" />
        </mxCell>
        <mxCell id="BOxT3LTor6TBMMufEwT3-159" value="订单管理" style="shape=crossbar;whiteSpace=wrap;html=1;rounded=1;fillColor=none;strokeColor=#00CC00;fontColor=#00CC00;" vertex="1" parent="1">
          <mxGeometry x="-180" y="1180" width="330" height="20" as="geometry" />
        </mxCell>
        <mxCell id="BOxT3LTor6TBMMufEwT3-161" style="edgeStyle=orthogonalEdgeStyle;rounded=0;orthogonalLoop=1;jettySize=auto;html=1;exitX=1;exitY=0.94;exitDx=0;exitDy=0;exitPerimeter=0;shape=link;dashed=1;" edge="1" parent="1" source="BOxT3LTor6TBMMufEwT3-158" target="BOxT3LTor6TBMMufEwT3-162">
          <mxGeometry relative="1" as="geometry">
            <mxPoint x="20" y="1066" as="targetPoint" />
            <mxPoint x="49.959999999999866" y="1042.48" as="sourcePoint" />
          </mxGeometry>
        </mxCell>
        <mxCell id="BOxT3LTor6TBMMufEwT3-162" value="scheam：main_meta&lt;br&gt;(主数据：商品、用户)" style="rounded=1;whiteSpace=wrap;html=1;fillColor=none;align=center;verticalAlign=middle;" vertex="1" parent="1">
          <mxGeometry y="1045" width="132.21" height="50" as="geometry" />
        </mxCell>
        <mxCell id="BOxT3LTor6TBMMufEwT3-173" value="&lt;span style=&quot;background-color: inherit ; font-family: &amp;#34;menlo&amp;#34; , &amp;#34;monaco&amp;#34; , &amp;#34;consolas&amp;#34; , &amp;#34;andale mono&amp;#34; , &amp;#34;lucida console&amp;#34; , &amp;#34;courier new&amp;#34; , monospace ; font-size: inherit ; color: rgb(18 , 18 , 18)&quot;&gt;ingress:&lt;/span&gt;&lt;font color=&quot;#1a1a1a&quot;&gt;商央: center.lifecycle.cn&lt;/font&gt;" style="sketch=0;points=[[0,0,0],[0.25,0,0],[0.5,0,0],[0.75,0,0],[1,0,0],[1,0.25,0],[1,0.5,0],[1,0.75,0],[1,1,0],[0.75,1,0],[0.5,1,0],[0.25,1,0],[0,1,0],[0,0.75,0],[0,0.5,0],[0,0.25,0]];rounded=1;absoluteArcSize=1;arcSize=2;html=1;strokeColor=none;gradientColor=none;shadow=0;dashed=0;fontSize=12;fontColor=#9E9E9E;align=left;verticalAlign=top;spacing=10;spacingTop=-4;fillColor=#F3E5F5;" vertex="1" parent="1">
          <mxGeometry x="-410" y="450" width="590" height="460" as="geometry" />
        </mxCell>
        <mxCell id="BOxT3LTor6TBMMufEwT3-175" value="用户中心" style="sketch=0;aspect=fixed;pointerEvents=1;shadow=0;dashed=0;html=1;strokeColor=none;labelPosition=center;verticalLabelPosition=bottom;verticalAlign=top;align=center;fillColor=#00188D;shape=mxgraph.mscae.enterprise.application" vertex="1" parent="1">
          <mxGeometry x="-268.2399999999999" y="788.87" width="73.52" height="50" as="geometry" />
        </mxCell>
        <mxCell id="BOxT3LTor6TBMMufEwT3-177" value="消息中心" style="sketch=0;aspect=fixed;pointerEvents=1;shadow=0;dashed=0;html=1;strokeColor=none;labelPosition=center;verticalLabelPosition=bottom;verticalAlign=top;align=center;fillColor=#00188D;shape=mxgraph.mscae.enterprise.application" vertex="1" parent="1">
          <mxGeometry x="-146.75999999999996" y="788.87" width="73.52" height="50" as="geometry" />
        </mxCell>
        <mxCell id="BOxT3LTor6TBMMufEwT3-178" value="任务中心" style="sketch=0;aspect=fixed;pointerEvents=1;shadow=0;dashed=0;html=1;strokeColor=none;labelPosition=center;verticalLabelPosition=bottom;verticalAlign=top;align=center;fillColor=#00188D;shape=mxgraph.mscae.enterprise.application" vertex="1" parent="1">
          <mxGeometry x="-27.239999999999945" y="788.87" width="73.52" height="50" as="geometry" />
        </mxCell>
        <mxCell id="BOxT3LTor6TBMMufEwT3-196" style="edgeStyle=orthogonalEdgeStyle;rounded=0;orthogonalLoop=1;jettySize=auto;html=1;exitX=0;exitY=0.5;exitDx=0;exitDy=0;entryX=0;entryY=0.5;entryDx=0;entryDy=0;entryPerimeter=0;fontColor=#1A1A1A;" edge="1" parent="1" source="BOxT3LTor6TBMMufEwT3-182" target="BOxT3LTor6TBMMufEwT3-175">
          <mxGeometry relative="1" as="geometry" />
        </mxCell>
        <mxCell id="BOxT3LTor6TBMMufEwT3-203" value="&amp;nbsp;proxy: /user-center&amp;nbsp;" style="edgeLabel;html=1;align=center;verticalAlign=middle;resizable=0;points=[];fontColor=#1A1A1A;" vertex="1" connectable="0" parent="BOxT3LTor6TBMMufEwT3-196">
          <mxGeometry x="-0.6694" y="1" relative="1" as="geometry">
            <mxPoint y="7" as="offset" />
          </mxGeometry>
        </mxCell>
        <mxCell id="BOxT3LTor6TBMMufEwT3-197" style="edgeStyle=orthogonalEdgeStyle;rounded=0;orthogonalLoop=1;jettySize=auto;html=1;exitX=0.5;exitY=1;exitDx=0;exitDy=0;entryX=0.5;entryY=0;entryDx=0;entryDy=0;entryPerimeter=0;fontColor=#1A1A1A;" edge="1" parent="1" source="BOxT3LTor6TBMMufEwT3-182" target="BOxT3LTor6TBMMufEwT3-193">
          <mxGeometry relative="1" as="geometry" />
        </mxCell>
        <mxCell id="BOxT3LTor6TBMMufEwT3-198" value="&amp;nbsp;proxy: /api&amp;nbsp;" style="edgeLabel;html=1;align=center;verticalAlign=middle;resizable=0;points=[];fontColor=#1A1A1A;" vertex="1" connectable="0" parent="BOxT3LTor6TBMMufEwT3-197">
          <mxGeometry x="-0.6286" y="1" relative="1" as="geometry">
            <mxPoint as="offset" />
          </mxGeometry>
        </mxCell>
        <mxCell id="BOxT3LTor6TBMMufEwT3-200" style="edgeStyle=orthogonalEdgeStyle;rounded=0;orthogonalLoop=1;jettySize=auto;html=1;exitX=1;exitY=0.5;exitDx=0;exitDy=0;entryX=1;entryY=0.5;entryDx=0;entryDy=0;entryPerimeter=0;fontColor=#1A1A1A;" edge="1" parent="1" source="BOxT3LTor6TBMMufEwT3-182" target="BOxT3LTor6TBMMufEwT3-178">
          <mxGeometry relative="1" as="geometry" />
        </mxCell>
        <mxCell id="BOxT3LTor6TBMMufEwT3-201" value="&amp;nbsp;proxy: /plan-api&amp;nbsp;" style="edgeLabel;html=1;align=center;verticalAlign=middle;resizable=0;points=[];fontColor=#1A1A1A;" vertex="1" connectable="0" parent="BOxT3LTor6TBMMufEwT3-200">
          <mxGeometry x="-0.628" y="-2" relative="1" as="geometry">
            <mxPoint as="offset" />
          </mxGeometry>
        </mxCell>
        <mxCell id="BOxT3LTor6TBMMufEwT3-204" style="edgeStyle=orthogonalEdgeStyle;rounded=0;orthogonalLoop=1;jettySize=auto;html=1;exitX=0.297;exitY=1.067;exitDx=0;exitDy=0;entryX=1;entryY=0.5;entryDx=0;entryDy=0;entryPerimeter=0;fontColor=#1A1A1A;exitPerimeter=0;" edge="1" parent="1" source="BOxT3LTor6TBMMufEwT3-182" target="BOxT3LTor6TBMMufEwT3-191">
          <mxGeometry relative="1" as="geometry" />
        </mxCell>
        <mxCell id="BOxT3LTor6TBMMufEwT3-205" value="&amp;nbsp;proxy: /&amp;nbsp;" style="edgeLabel;html=1;align=center;verticalAlign=middle;resizable=0;points=[];fontColor=#1A1A1A;" vertex="1" connectable="0" parent="BOxT3LTor6TBMMufEwT3-204">
          <mxGeometry x="-0.0069" y="-1" relative="1" as="geometry">
            <mxPoint as="offset" />
          </mxGeometry>
        </mxCell>
        <mxCell id="BOxT3LTor6TBMMufEwT3-207" style="edgeStyle=orthogonalEdgeStyle;rounded=0;orthogonalLoop=1;jettySize=auto;html=1;entryX=0;entryY=0.5;entryDx=0;entryDy=0;entryPerimeter=0;fontColor=#1A1A1A;exitX=0.675;exitY=1.067;exitDx=0;exitDy=0;exitPerimeter=0;" edge="1" parent="1" source="BOxT3LTor6TBMMufEwT3-182" target="BOxT3LTor6TBMMufEwT3-192">
          <mxGeometry relative="1" as="geometry" />
        </mxCell>
        <mxCell id="BOxT3LTor6TBMMufEwT3-208" value="&amp;nbsp;proxy: /plan&amp;nbsp;" style="edgeLabel;html=1;align=center;verticalAlign=middle;resizable=0;points=[];fontColor=#1A1A1A;" vertex="1" connectable="0" parent="BOxT3LTor6TBMMufEwT3-207">
          <mxGeometry x="-0.1271" y="1" relative="1" as="geometry">
            <mxPoint as="offset" />
          </mxGeometry>
        </mxCell>
        <mxCell id="BOxT3LTor6TBMMufEwT3-182" value="Nginx" style="rounded=0;whiteSpace=wrap;html=1;fontColor=#1A1A1A;strokeColor=#00CC00;fillColor=#E6E6E6;align=center;verticalAlign=middle;" vertex="1" parent="1">
          <mxGeometry x="-270" y="520" width="320" height="30" as="geometry" />
        </mxCell>
        <mxCell id="BOxT3LTor6TBMMufEwT3-183" value="Redis" style="sketch=0;aspect=fixed;pointerEvents=1;shadow=0;dashed=0;html=1;strokeColor=none;labelPosition=center;verticalLabelPosition=bottom;verticalAlign=top;align=center;fillColor=#00188D;shape=mxgraph.mscae.enterprise.application_blank" vertex="1" parent="1">
          <mxGeometry x="356.62" y="506.19000000000005" width="67" height="57.62" as="geometry" />
        </mxCell>
        <mxCell id="BOxT3LTor6TBMMufEwT3-191" value="商央前端" style="sketch=0;pointerEvents=1;shadow=0;dashed=0;html=1;strokeColor=none;labelPosition=center;verticalLabelPosition=bottom;verticalAlign=top;align=center;fillColor=#505050;shape=mxgraph.mscae.intune.company_portal;fontColor=#1A1A1A;" vertex="1" parent="1">
          <mxGeometry x="-268.24" y="620" width="70" height="35" as="geometry" />
        </mxCell>
        <mxCell id="BOxT3LTor6TBMMufEwT3-192" value="任务中心前端" style="sketch=0;pointerEvents=1;shadow=0;dashed=0;html=1;strokeColor=none;labelPosition=center;verticalLabelPosition=bottom;verticalAlign=top;align=center;fillColor=#505050;shape=mxgraph.mscae.intune.company_portal;fontColor=#1A1A1A;" vertex="1" parent="1">
          <mxGeometry x="-27.239999999999988" y="620" width="70" height="35" as="geometry" />
        </mxCell>
        <mxCell id="BOxT3LTor6TBMMufEwT3-193" value="商央元数据" style="sketch=0;aspect=fixed;pointerEvents=1;shadow=0;dashed=0;html=1;strokeColor=none;labelPosition=center;verticalLabelPosition=bottom;verticalAlign=top;align=center;fillColor=#00188D;shape=mxgraph.mscae.enterprise.application" vertex="1" parent="1">
          <mxGeometry x="-146.75999999999993" y="692.48" width="73.52" height="50" as="geometry" />
        </mxCell>
      </root>
    </mxGraphModel>
  </diagram>
</mxfile>
